<svg xmlns="http://www.w3.org/2000/svg" xmlns:xlink="http://www.w3.org/1999/xlink" zoomAndPan="magnify" preserveAspectRatio="xMidYMid meet" version="1.0" viewBox="42.22 227.29 446.86 91.9"><defs><g/><clipPath id="7b74ac68ee"><path d="M 221.21875 241.101562 L 245.632812 241.101562 L 245.632812 282.898438 L 221.21875 282.898438 Z M 221.21875 241.101562 " clip-rule="nonzero"/></clipPath><clipPath id="eb7853ce81"><path d="M 228 241 L 242 241 L 242 283 L 228 283 Z M 228 241 " clip-rule="nonzero"/></clipPath><clipPath id="4ba58b3b03"><path d="M 221.21875 247.316406 L 239.632812 241.015625 L 251.746094 276.429688 L 233.332031 282.730469 Z M 221.21875 247.316406 " clip-rule="nonzero"/></clipPath><clipPath id="b62afab5c6"><path d="M 221.21875 247.316406 L 239.632812 241.015625 L 251.746094 276.429688 L 233.332031 282.730469 Z M 221.21875 247.316406 " clip-rule="nonzero"/></clipPath><clipPath id="e6667cabad"><path d="M 228 243 L 236 243 L 236 283 L 228 283 Z M 228 243 " clip-rule="nonzero"/></clipPath><clipPath id="9c74997b4e"><path d="M 221.21875 247.316406 L 239.632812 241.015625 L 251.746094 276.429688 L 233.332031 282.730469 Z M 221.21875 247.316406 " clip-rule="nonzero"/></clipPath><clipPath id="ae806bf981"><path d="M 221.21875 247.316406 L 239.632812 241.015625 L 251.746094 276.429688 L 233.332031 282.730469 Z M 221.21875 247.316406 " clip-rule="nonzero"/></clipPath><clipPath id="cc59e09614"><path d="M 467.269531 274.542969 L 488.976562 274.542969 L 488.976562 296.253906 L 467.269531 296.253906 Z M 467.269531 274.542969 " clip-rule="nonzero"/></clipPath></defs><g fill="#000000" fill-opacity="1"><g transform="translate(39.894702, 289.742426)"><g><path d="M 49.484375 -57.625 L 49.484375 0 L 35.421875 0 L 35.421875 -4.1875 C 32.671875 -0.925781 28.550781 0.703125 23.0625 0.703125 C 19.238281 0.703125 15.742188 -0.1875 12.578125 -1.96875 C 9.421875 -3.757812 6.921875 -6.3125 5.078125 -9.625 C 3.242188 -12.945312 2.328125 -16.78125 2.328125 -21.125 C 2.328125 -25.476562 3.242188 -29.296875 5.078125 -32.578125 C 6.921875 -35.867188 9.421875 -38.394531 12.578125 -40.15625 C 15.742188 -41.914062 19.238281 -42.796875 23.0625 -42.796875 C 28.09375 -42.796875 31.976562 -41.347656 34.71875 -38.453125 L 34.71875 -57.625 Z M 26.171875 -11.03125 C 28.710938 -11.03125 30.8125 -11.921875 32.46875 -13.703125 C 34.125 -15.492188 34.953125 -17.96875 34.953125 -21.125 C 34.953125 -24.226562 34.132812 -26.660156 32.5 -28.421875 C 30.875 -30.179688 28.765625 -31.0625 26.171875 -31.0625 C 23.585938 -31.0625 21.46875 -30.179688 19.8125 -28.421875 C 18.15625 -26.660156 17.328125 -24.226562 17.328125 -21.125 C 17.328125 -17.96875 18.15625 -15.492188 19.8125 -13.703125 C 21.46875 -11.921875 23.585938 -11.03125 26.171875 -11.03125 Z M 26.171875 -11.03125 "/></g></g></g><g fill="#000000" fill-opacity="1"><g transform="translate(86.189712, 289.742426)"><g><path d="M 32.15625 -42.796875 C 37.382812 -42.796875 41.585938 -41.238281 44.765625 -38.125 C 47.953125 -35.019531 49.546875 -30.335938 49.546875 -24.078125 L 49.546875 0 L 34.796875 0 L 34.796875 -21.671875 C 34.796875 -27.421875 32.492188 -30.296875 27.890625 -30.296875 C 25.347656 -30.296875 23.3125 -29.46875 21.78125 -27.8125 C 20.257812 -26.15625 19.5 -23.664062 19.5 -20.34375 L 19.5 0 L 4.734375 0 L 4.734375 -57.625 L 19.5 -57.625 L 19.5 -38.21875 C 21.101562 -39.71875 22.988281 -40.851562 25.15625 -41.625 C 27.332031 -42.40625 29.664062 -42.796875 32.15625 -42.796875 Z M 32.15625 -42.796875 "/></g></g></g><g fill="#000000" fill-opacity="1"><g transform="translate(132.32937, 289.742426)"><g/></g></g><g fill="#000000" fill-opacity="1"><g transform="translate(147.010174, 289.742426)"><g><path d="M 20.046875 0.703125 C 16.515625 0.703125 13.039062 0.300781 9.625 -0.5 C 6.207031 -1.300781 3.460938 -2.351562 1.390625 -3.65625 L 5.828125 -13.75 C 7.742188 -12.5625 10.019531 -11.613281 12.65625 -10.90625 C 15.300781 -10.207031 17.914062 -9.859375 20.5 -9.859375 C 22.882812 -9.859375 24.582031 -10.101562 25.59375 -10.59375 C 26.601562 -11.09375 27.109375 -11.804688 27.109375 -12.734375 C 27.109375 -13.671875 26.5 -14.332031 25.28125 -14.71875 C 24.0625 -15.101562 22.132812 -15.476562 19.5 -15.84375 C 16.132812 -16.257812 13.269531 -16.800781 10.90625 -17.46875 C 8.550781 -18.144531 6.519531 -19.390625 4.8125 -21.203125 C 3.101562 -23.015625 2.25 -25.550781 2.25 -28.8125 C 2.25 -31.507812 3.050781 -33.90625 4.65625 -36 C 6.257812 -38.09375 8.601562 -39.75 11.6875 -40.96875 C 14.769531 -42.1875 18.460938 -42.796875 22.765625 -42.796875 C 25.816406 -42.796875 28.84375 -42.484375 31.84375 -41.859375 C 34.84375 -41.242188 37.351562 -40.363281 39.375 -39.21875 L 34.953125 -29.203125 C 31.222656 -31.273438 27.179688 -32.3125 22.828125 -32.3125 C 20.503906 -32.3125 18.796875 -32.039062 17.703125 -31.5 C 16.617188 -30.957031 16.078125 -30.242188 16.078125 -29.359375 C 16.078125 -28.378906 16.671875 -27.691406 17.859375 -27.296875 C 19.054688 -26.910156 21.023438 -26.507812 23.765625 -26.09375 C 27.234375 -25.582031 30.109375 -24.988281 32.390625 -24.3125 C 34.671875 -23.632812 36.648438 -22.398438 38.328125 -20.609375 C 40.015625 -18.828125 40.859375 -16.332031 40.859375 -13.125 C 40.859375 -10.488281 40.054688 -8.117188 38.453125 -6.015625 C 36.847656 -3.921875 34.476562 -2.273438 31.34375 -1.078125 C 28.207031 0.109375 24.441406 0.703125 20.046875 0.703125 Z M 20.046875 0.703125 "/></g></g></g><g fill="#000000" fill-opacity="1"><g transform="translate(181.576078, 289.742426)"><g><path d="M 25.859375 0.703125 C 21.359375 0.703125 17.296875 -0.226562 13.671875 -2.09375 C 10.046875 -3.957031 7.207031 -6.546875 5.15625 -9.859375 C 3.113281 -13.171875 2.09375 -16.925781 2.09375 -21.125 C 2.09375 -25.269531 3.113281 -29 5.15625 -32.3125 C 7.207031 -35.625 10.03125 -38.195312 13.625 -40.03125 C 17.226562 -41.875 21.304688 -42.796875 25.859375 -42.796875 C 30.421875 -42.796875 34.515625 -41.875 38.140625 -40.03125 C 41.765625 -38.195312 44.582031 -35.632812 46.59375 -32.34375 C 48.613281 -29.0625 49.625 -25.320312 49.625 -21.125 C 49.625 -16.925781 48.613281 -13.171875 46.59375 -9.859375 C 44.582031 -6.546875 41.765625 -3.957031 38.140625 -2.09375 C 34.515625 -0.226562 30.421875 0.703125 25.859375 0.703125 Z M 25.859375 -11.03125 C 28.453125 -11.03125 30.578125 -11.921875 32.234375 -13.703125 C 33.890625 -15.492188 34.71875 -17.96875 34.71875 -21.125 C 34.71875 -24.226562 33.890625 -26.660156 32.234375 -28.421875 C 30.578125 -30.179688 28.453125 -31.0625 25.859375 -31.0625 C 23.273438 -31.0625 21.15625 -30.179688 19.5 -28.421875 C 17.84375 -26.660156 17.015625 -24.226562 17.015625 -21.125 C 17.015625 -17.96875 17.84375 -15.492188 19.5 -13.703125 C 21.15625 -11.921875 23.273438 -11.03125 25.859375 -11.03125 Z M 25.859375 -11.03125 "/></g></g></g><g fill="#000000" fill-opacity="1"><g transform="translate(225.385443, 289.742426)"><g><path d="M 4.734375 -57.625 L 19.5 -57.625 L 19.5 0 L 4.734375 0 Z M 4.734375 -57.625 "/></g></g></g><g fill="#000000" fill-opacity="1"><g transform="translate(241.77512, 289.742426)"><g><path d="M 49.015625 -42.09375 L 49.015625 0 L 34.953125 0 L 34.953125 -4.5 C 33.398438 -2.789062 31.535156 -1.492188 29.359375 -0.609375 C 27.179688 0.265625 24.878906 0.703125 22.453125 0.703125 C 17.015625 0.703125 12.675781 -0.898438 9.4375 -4.109375 C 6.195312 -7.328125 4.578125 -12.144531 4.578125 -18.5625 L 4.578125 -42.09375 L 19.34375 -42.09375 L 19.34375 -20.96875 C 19.34375 -17.8125 19.9375 -15.507812 21.125 -14.0625 C 22.3125 -12.613281 24.046875 -11.890625 26.328125 -11.890625 C 28.660156 -11.890625 30.5625 -12.703125 32.03125 -14.328125 C 33.507812 -15.960938 34.25 -18.460938 34.25 -21.828125 L 34.25 -42.09375 Z M 49.015625 -42.09375 "/></g></g></g><g fill="#000000" fill-opacity="1"><g transform="translate(287.604083, 289.742426)"><g><path d="M 33.78125 -1.703125 C 32.539062 -0.929688 31.023438 -0.335938 29.234375 0.078125 C 27.453125 0.492188 25.550781 0.703125 23.53125 0.703125 C 18.039062 0.703125 13.820312 -0.640625 10.875 -3.328125 C 7.925781 -6.023438 6.453125 -10.039062 6.453125 -15.375 L 6.453125 -29.515625 L 0.3125 -29.515625 L 0.3125 -40.546875 L 6.453125 -40.546875 L 6.453125 -51.5 L 21.203125 -51.5 L 21.203125 -40.546875 L 30.828125 -40.546875 L 30.828125 -29.515625 L 21.203125 -29.515625 L 21.203125 -15.53125 C 21.203125 -14.03125 21.601562 -12.851562 22.40625 -12 C 23.207031 -11.144531 24.28125 -10.71875 25.625 -10.71875 C 27.332031 -10.71875 28.835938 -11.160156 30.140625 -12.046875 Z M 33.78125 -1.703125 "/></g></g></g><g fill="#000000" fill-opacity="1"><g transform="translate(314.402365, 289.742426)"><g><path d="M 4.734375 -42.09375 L 19.5 -42.09375 L 19.5 0 L 4.734375 0 Z M 12.125 -46.765625 C 9.425781 -46.765625 7.25 -47.515625 5.59375 -49.015625 C 3.9375 -50.515625 3.109375 -52.378906 3.109375 -54.609375 C 3.109375 -56.828125 3.9375 -58.6875 5.59375 -60.1875 C 7.25 -61.695312 9.425781 -62.453125 12.125 -62.453125 C 14.8125 -62.453125 16.984375 -61.738281 18.640625 -60.3125 C 20.296875 -58.882812 21.125 -57.0625 21.125 -54.84375 C 21.125 -52.507812 20.296875 -50.578125 18.640625 -49.046875 C 16.984375 -47.523438 14.8125 -46.765625 12.125 -46.765625 Z M 12.125 -46.765625 "/></g></g></g><g fill="#000000" fill-opacity="1"><g transform="translate(330.792043, 289.742426)"><g><path d="M 25.859375 0.703125 C 21.359375 0.703125 17.296875 -0.226562 13.671875 -2.09375 C 10.046875 -3.957031 7.207031 -6.546875 5.15625 -9.859375 C 3.113281 -13.171875 2.09375 -16.925781 2.09375 -21.125 C 2.09375 -25.269531 3.113281 -29 5.15625 -32.3125 C 7.207031 -35.625 10.03125 -38.195312 13.625 -40.03125 C 17.226562 -41.875 21.304688 -42.796875 25.859375 -42.796875 C 30.421875 -42.796875 34.515625 -41.875 38.140625 -40.03125 C 41.765625 -38.195312 44.582031 -35.632812 46.59375 -32.34375 C 48.613281 -29.0625 49.625 -25.320312 49.625 -21.125 C 49.625 -16.925781 48.613281 -13.171875 46.59375 -9.859375 C 44.582031 -6.546875 41.765625 -3.957031 38.140625 -2.09375 C 34.515625 -0.226562 30.421875 0.703125 25.859375 0.703125 Z M 25.859375 -11.03125 C 28.453125 -11.03125 30.578125 -11.921875 32.234375 -13.703125 C 33.890625 -15.492188 34.71875 -17.96875 34.71875 -21.125 C 34.71875 -24.226562 33.890625 -26.660156 32.234375 -28.421875 C 30.578125 -30.179688 28.453125 -31.0625 25.859375 -31.0625 C 23.273438 -31.0625 21.15625 -30.179688 19.5 -28.421875 C 17.84375 -26.660156 17.015625 -24.226562 17.015625 -21.125 C 17.015625 -17.96875 17.84375 -15.492188 19.5 -13.703125 C 21.15625 -11.921875 23.273438 -11.03125 25.859375 -11.03125 Z M 25.859375 -11.03125 "/></g></g></g><g fill="#000000" fill-opacity="1"><g transform="translate(374.601408, 289.742426)"><g><path d="M 32.15625 -42.796875 C 37.382812 -42.796875 41.585938 -41.238281 44.765625 -38.125 C 47.953125 -35.019531 49.546875 -30.335938 49.546875 -24.078125 L 49.546875 0 L 34.796875 0 L 34.796875 -21.671875 C 34.796875 -27.421875 32.492188 -30.296875 27.890625 -30.296875 C 25.347656 -30.296875 23.3125 -29.46875 21.78125 -27.8125 C 20.257812 -26.15625 19.5 -23.664062 19.5 -20.34375 L 19.5 0 L 4.734375 0 L 4.734375 -42.09375 L 18.796875 -42.09375 L 18.796875 -37.515625 C 20.453125 -39.222656 22.414062 -40.53125 24.6875 -41.4375 C 26.96875 -42.34375 29.457031 -42.796875 32.15625 -42.796875 Z M 32.15625 -42.796875 "/></g></g></g><g fill="#000000" fill-opacity="1"><g transform="translate(420.741073, 289.742426)"><g><path d="M 20.046875 0.703125 C 16.515625 0.703125 13.039062 0.300781 9.625 -0.5 C 6.207031 -1.300781 3.460938 -2.351562 1.390625 -3.65625 L 5.828125 -13.75 C 7.742188 -12.5625 10.019531 -11.613281 12.65625 -10.90625 C 15.300781 -10.207031 17.914062 -9.859375 20.5 -9.859375 C 22.882812 -9.859375 24.582031 -10.101562 25.59375 -10.59375 C 26.601562 -11.09375 27.109375 -11.804688 27.109375 -12.734375 C 27.109375 -13.671875 26.5 -14.332031 25.28125 -14.71875 C 24.0625 -15.101562 22.132812 -15.476562 19.5 -15.84375 C 16.132812 -16.257812 13.269531 -16.800781 10.90625 -17.46875 C 8.550781 -18.144531 6.519531 -19.390625 4.8125 -21.203125 C 3.101562 -23.015625 2.25 -25.550781 2.25 -28.8125 C 2.25 -31.507812 3.050781 -33.90625 4.65625 -36 C 6.257812 -38.09375 8.601562 -39.75 11.6875 -40.96875 C 14.769531 -42.1875 18.460938 -42.796875 22.765625 -42.796875 C 25.816406 -42.796875 28.84375 -42.484375 31.84375 -41.859375 C 34.84375 -41.242188 37.351562 -40.363281 39.375 -39.21875 L 34.953125 -29.203125 C 31.222656 -31.273438 27.179688 -32.3125 22.828125 -32.3125 C 20.503906 -32.3125 18.796875 -32.039062 17.703125 -31.5 C 16.617188 -30.957031 16.078125 -30.242188 16.078125 -29.359375 C 16.078125 -28.378906 16.671875 -27.691406 17.859375 -27.296875 C 19.054688 -26.910156 21.023438 -26.507812 23.765625 -26.09375 C 27.234375 -25.582031 30.109375 -24.988281 32.390625 -24.3125 C 34.671875 -23.632812 36.648438 -22.398438 38.328125 -20.609375 C 40.015625 -18.828125 40.859375 -16.332031 40.859375 -13.125 C 40.859375 -10.488281 40.054688 -8.117188 38.453125 -6.015625 C 36.847656 -3.921875 34.476562 -2.273438 31.34375 -1.078125 C 28.207031 0.109375 24.441406 0.703125 20.046875 0.703125 Z M 20.046875 0.703125 "/></g></g></g><g clip-path="url(#7b74ac68ee)"><path fill="#000000" d="M 221.21875 241.101562 L 245.632812 241.101562 L 245.632812 282.871094 L 221.21875 282.871094 Z M 221.21875 241.101562 " fill-opacity="1" fill-rule="nonzero"/></g><g clip-path="url(#eb7853ce81)"><g clip-path="url(#4ba58b3b03)"><g clip-path="url(#b62afab5c6)"><path fill="#ff3131" d="M 230.222656 244.234375 L 239.378906 241.105469 L 236.324219 255.890625 L 241.691406 254.054688 L 233.429688 282.992188 L 234.488281 262.378906 L 228.746094 264.664062 Z M 230.222656 244.234375 " fill-opacity="1" fill-rule="nonzero"/></g></g></g><g clip-path="url(#e6667cabad)"><g clip-path="url(#9c74997b4e)"><g clip-path="url(#ae806bf981)"><path fill="#000000" d="M 230.222656 244.234375 L 231.800781 243.695312 L 228.746094 264.664062 Z M 233.429688 282.992188 L 235.59375 262 L 234.488281 262.378906 Z M 233.429688 282.992188 " fill-opacity="1" fill-rule="nonzero"/></g></g></g><g clip-path="url(#cc59e09614)"><path fill="#ff3131" d="M 478.175781 274.542969 C 484.199219 274.542969 489.082031 279.429688 489.082031 285.453125 C 489.082031 291.476562 484.199219 296.359375 478.175781 296.359375 C 472.152344 296.359375 467.269531 291.476562 467.269531 285.453125 C 467.269531 279.429688 472.152344 274.542969 478.175781 274.542969 Z M 478.175781 274.542969 " fill-opacity="1" fill-rule="evenodd"/></g><g fill="#ff3131" fill-opacity="1"><g transform="translate(116.236794, 319.0455)"><g><path d="M 1.140625 -9.78125 L 6.90625 -9.78125 C 7.15625 -9.78125 7.367188 -9.691406 7.546875 -9.515625 C 7.722656 -9.335938 7.8125 -9.125 7.8125 -8.875 C 7.8125 -8.625 7.722656 -8.410156 7.546875 -8.234375 C 7.367188 -8.054688 7.15625 -7.96875 6.90625 -7.96875 L 5.046875 -7.96875 L 5.046875 -0.921875 C 5.046875 -0.609375 4.957031 -0.351562 4.78125 -0.15625 C 4.613281 0.0390625 4.359375 0.140625 4.015625 0.140625 C 3.679688 0.140625 3.429688 0.0390625 3.265625 -0.15625 C 3.097656 -0.351562 3.015625 -0.609375 3.015625 -0.921875 L 3.015625 -7.96875 L 1.140625 -7.96875 C 0.890625 -7.96875 0.675781 -8.054688 0.5 -8.234375 C 0.332031 -8.410156 0.25 -8.625 0.25 -8.875 C 0.25 -9.125 0.332031 -9.335938 0.5 -9.515625 C 0.675781 -9.691406 0.890625 -9.78125 1.140625 -9.78125 Z M 1.140625 -9.78125 "/></g></g></g><g fill="#ff3131" fill-opacity="1"><g transform="translate(124.254352, 319.0455)"><g><path d="M 6.546875 -4.28125 C 6.898438 -4.0625 7.195312 -3.753906 7.4375 -3.359375 L 8.609375 -1.40625 C 8.710938 -1.238281 8.765625 -1.054688 8.765625 -0.859375 C 8.765625 -0.597656 8.660156 -0.363281 8.453125 -0.15625 C 8.253906 0.0390625 8.019531 0.140625 7.75 0.140625 C 7.582031 0.140625 7.421875 0.09375 7.265625 0 C 7.109375 -0.09375 6.988281 -0.210938 6.90625 -0.359375 L 5.375 -2.84375 C 5.070312 -3.375 4.585938 -3.640625 3.921875 -3.640625 L 2.875 -3.640625 L 2.875 -0.921875 C 2.875 -0.609375 2.789062 -0.351562 2.625 -0.15625 C 2.457031 0.0390625 2.207031 0.140625 1.875 0.140625 C 1.539062 0.140625 1.285156 0.0390625 1.109375 -0.15625 C 0.941406 -0.351562 0.859375 -0.609375 0.859375 -0.921875 L 0.859375 -8.71875 C 0.859375 -9.039062 0.941406 -9.296875 1.109375 -9.484375 C 1.285156 -9.679688 1.539062 -9.78125 1.875 -9.78125 L 5.53125 -9.78125 C 6.414062 -9.78125 7.113281 -9.546875 7.625 -9.078125 C 8.144531 -8.609375 8.40625 -7.914062 8.40625 -7 C 8.40625 -6.257812 8.238281 -5.660156 7.90625 -5.203125 C 7.570312 -4.742188 7.117188 -4.4375 6.546875 -4.28125 Z M 2.875 -5.34375 L 5 -5.34375 C 5.40625 -5.34375 5.734375 -5.46875 5.984375 -5.71875 C 6.242188 -5.96875 6.375 -6.304688 6.375 -6.734375 C 6.375 -7.171875 6.242188 -7.507812 5.984375 -7.75 C 5.734375 -7.988281 5.40625 -8.109375 5 -8.109375 L 2.875 -8.109375 Z M 2.875 -5.34375 "/></g></g></g><g fill="#ff3131" fill-opacity="1"><g transform="translate(133.277601, 319.0455)"><g><path d="M 4.75 -9.921875 C 5.164062 -9.898438 5.460938 -9.703125 5.640625 -9.328125 L 9.09375 -1.3125 C 9.164062 -1.144531 9.203125 -0.992188 9.203125 -0.859375 C 9.203125 -0.585938 9.101562 -0.351562 8.90625 -0.15625 C 8.707031 0.0390625 8.46875 0.140625 8.1875 0.140625 C 7.976562 0.140625 7.789062 0.09375 7.625 0 C 7.457031 -0.09375 7.335938 -0.242188 7.265625 -0.453125 L 6.5625 -2.34375 L 2.875 -2.34375 L 2.171875 -0.453125 C 2.097656 -0.242188 1.976562 -0.09375 1.8125 0 C 1.65625 0.09375 1.46875 0.140625 1.25 0.140625 C 0.976562 0.140625 0.742188 0.0390625 0.546875 -0.15625 C 0.347656 -0.351562 0.25 -0.585938 0.25 -0.859375 C 0.25 -1.023438 0.28125 -1.175781 0.34375 -1.3125 L 3.796875 -9.328125 C 3.878906 -9.503906 4.003906 -9.644531 4.171875 -9.75 C 4.335938 -9.863281 4.519531 -9.921875 4.71875 -9.921875 C 4.726562 -9.921875 4.738281 -9.921875 4.75 -9.921875 Z M 6 -3.921875 L 4.734375 -7.375 L 3.46875 -3.921875 Z M 6 -3.921875 "/></g></g></g><g fill="#ff3131" fill-opacity="1"><g transform="translate(142.691949, 319.0455)"><g><path d="M 1.859375 -9.90625 C 2.015625 -9.90625 2.160156 -9.875 2.296875 -9.8125 C 2.429688 -9.757812 2.546875 -9.671875 2.640625 -9.546875 L 7.078125 -3.453125 L 7.078125 -8.90625 C 7.078125 -9.1875 7.175781 -9.425781 7.375 -9.625 C 7.570312 -9.820312 7.816406 -9.921875 8.109375 -9.921875 C 8.378906 -9.921875 8.613281 -9.820312 8.8125 -9.625 C 9.007812 -9.425781 9.109375 -9.1875 9.109375 -8.90625 L 9.109375 -0.859375 C 9.109375 -0.585938 9.007812 -0.351562 8.8125 -0.15625 C 8.613281 0.03125 8.378906 0.125 8.109375 0.125 C 7.953125 0.125 7.800781 0.09375 7.65625 0.03125 C 7.519531 -0.0195312 7.40625 -0.101562 7.3125 -0.21875 L 2.875 -6.328125 L 2.875 -0.859375 C 2.875 -0.585938 2.773438 -0.351562 2.578125 -0.15625 C 2.378906 0.0390625 2.140625 0.140625 1.859375 0.140625 C 1.578125 0.140625 1.335938 0.0390625 1.140625 -0.15625 C 0.953125 -0.351562 0.859375 -0.585938 0.859375 -0.859375 L 0.859375 -8.90625 C 0.859375 -9.1875 0.953125 -9.421875 1.140625 -9.609375 C 1.335938 -9.804688 1.578125 -9.90625 1.859375 -9.90625 Z M 1.859375 -9.90625 "/></g></g></g><g fill="#ff3131" fill-opacity="1"><g transform="translate(152.637079, 319.0455)"><g><path d="M 4.359375 -9.921875 C 4.984375 -9.921875 5.585938 -9.816406 6.171875 -9.609375 C 6.753906 -9.398438 7.203125 -9.128906 7.515625 -8.796875 C 7.640625 -8.640625 7.703125 -8.460938 7.703125 -8.265625 C 7.703125 -8.023438 7.632812 -7.828125 7.5 -7.671875 C 7.363281 -7.515625 7.15625 -7.4375 6.875 -7.4375 C 6.789062 -7.4375 6.707031 -7.441406 6.625 -7.453125 C 6.550781 -7.472656 6.472656 -7.515625 6.390625 -7.578125 C 5.828125 -8.003906 5.207031 -8.21875 4.53125 -8.21875 C 4.019531 -8.21875 3.628906 -8.117188 3.359375 -7.921875 C 3.097656 -7.722656 2.96875 -7.457031 2.96875 -7.125 C 2.96875 -6.800781 3.0625 -6.550781 3.25 -6.375 C 3.445312 -6.207031 3.742188 -6.078125 4.140625 -5.984375 L 5.859375 -5.515625 C 6.640625 -5.304688 7.203125 -4.992188 7.546875 -4.578125 C 7.898438 -4.160156 8.078125 -3.570312 8.078125 -2.8125 C 8.078125 -2.25 7.945312 -1.742188 7.6875 -1.296875 C 7.4375 -0.859375 7.046875 -0.507812 6.515625 -0.25 C 5.984375 0.0078125 5.3125 0.140625 4.5 0.140625 C 2.851562 0.140625 1.628906 -0.21875 0.828125 -0.9375 C 0.742188 -1.019531 0.679688 -1.113281 0.640625 -1.21875 C 0.609375 -1.320312 0.59375 -1.421875 0.59375 -1.515625 C 0.59375 -1.753906 0.664062 -1.953125 0.8125 -2.109375 C 0.96875 -2.265625 1.171875 -2.34375 1.421875 -2.34375 C 1.585938 -2.34375 1.738281 -2.296875 1.875 -2.203125 C 2.25 -1.972656 2.632812 -1.804688 3.03125 -1.703125 C 3.4375 -1.609375 3.910156 -1.5625 4.453125 -1.5625 C 5.015625 -1.5625 5.421875 -1.671875 5.671875 -1.890625 C 5.921875 -2.109375 6.046875 -2.378906 6.046875 -2.703125 C 6.046875 -2.953125 5.960938 -3.164062 5.796875 -3.34375 C 5.640625 -3.53125 5.335938 -3.679688 4.890625 -3.796875 L 3.15625 -4.265625 C 2.445312 -4.453125 1.898438 -4.757812 1.515625 -5.1875 C 1.140625 -5.613281 0.953125 -6.234375 0.953125 -7.046875 C 0.953125 -7.898438 1.238281 -8.59375 1.8125 -9.125 C 2.382812 -9.65625 3.234375 -9.921875 4.359375 -9.921875 Z M 4.359375 -9.921875 "/></g></g></g><g fill="#ff3131" fill-opacity="1"><g transform="translate(161.241293, 319.0455)"><g><path d="M 1.859375 -9.78125 L 6.796875 -9.78125 C 7.054688 -9.78125 7.269531 -9.691406 7.4375 -9.515625 C 7.613281 -9.335938 7.703125 -9.125 7.703125 -8.875 C 7.703125 -8.625 7.613281 -8.410156 7.4375 -8.234375 C 7.269531 -8.054688 7.054688 -7.96875 6.796875 -7.96875 L 2.875 -7.96875 L 2.875 -5.03125 L 5.40625 -5.03125 C 5.65625 -5.03125 5.867188 -4.941406 6.046875 -4.765625 C 6.222656 -4.585938 6.3125 -4.375 6.3125 -4.125 C 6.3125 -3.875 6.222656 -3.660156 6.046875 -3.484375 C 5.867188 -3.316406 5.65625 -3.234375 5.40625 -3.234375 L 2.875 -3.234375 L 2.875 -0.921875 C 2.875 -0.609375 2.785156 -0.351562 2.609375 -0.15625 C 2.441406 0.0390625 2.191406 0.140625 1.859375 0.140625 C 1.523438 0.140625 1.273438 0.0390625 1.109375 -0.15625 C 0.941406 -0.351562 0.859375 -0.609375 0.859375 -0.921875 L 0.859375 -8.71875 C 0.859375 -9.039062 0.941406 -9.296875 1.109375 -9.484375 C 1.273438 -9.679688 1.523438 -9.78125 1.859375 -9.78125 Z M 1.859375 -9.78125 "/></g></g></g><g fill="#ff3131" fill-opacity="1"><g transform="translate(169.175041, 319.0455)"><g><path d="M 5.484375 -8.109375 C 4.578125 -8.109375 3.875 -7.816406 3.375 -7.234375 C 2.875 -6.660156 2.625 -5.878906 2.625 -4.890625 C 2.625 -3.898438 2.875 -3.113281 3.375 -2.53125 C 3.875 -1.957031 4.578125 -1.671875 5.484375 -1.671875 C 6.398438 -1.671875 7.109375 -1.957031 7.609375 -2.53125 C 8.117188 -3.113281 8.375 -3.898438 8.375 -4.890625 C 8.375 -5.878906 8.117188 -6.660156 7.609375 -7.234375 C 7.109375 -7.816406 6.398438 -8.109375 5.484375 -8.109375 Z M 5.484375 -9.921875 C 6.523438 -9.921875 7.410156 -9.703125 8.140625 -9.265625 C 8.867188 -8.835938 9.425781 -8.25 9.8125 -7.5 C 10.207031 -6.75 10.40625 -5.878906 10.40625 -4.890625 C 10.40625 -3.898438 10.207031 -3.023438 9.8125 -2.265625 C 9.425781 -1.515625 8.867188 -0.925781 8.140625 -0.5 C 7.410156 -0.0703125 6.523438 0.140625 5.484375 0.140625 C 4.453125 0.140625 3.570312 -0.0703125 2.84375 -0.5 C 2.113281 -0.925781 1.554688 -1.515625 1.171875 -2.265625 C 0.785156 -3.023438 0.59375 -3.898438 0.59375 -4.890625 C 0.59375 -5.878906 0.785156 -6.75 1.171875 -7.5 C 1.554688 -8.25 2.113281 -8.835938 2.84375 -9.265625 C 3.570312 -9.703125 4.453125 -9.921875 5.484375 -9.921875 Z M 5.484375 -9.921875 "/></g></g></g><g fill="#ff3131" fill-opacity="1"><g transform="translate(180.125861, 319.0455)"><g><path d="M 6.546875 -4.28125 C 6.898438 -4.0625 7.195312 -3.753906 7.4375 -3.359375 L 8.609375 -1.40625 C 8.710938 -1.238281 8.765625 -1.054688 8.765625 -0.859375 C 8.765625 -0.597656 8.660156 -0.363281 8.453125 -0.15625 C 8.253906 0.0390625 8.019531 0.140625 7.75 0.140625 C 7.582031 0.140625 7.421875 0.09375 7.265625 0 C 7.109375 -0.09375 6.988281 -0.210938 6.90625 -0.359375 L 5.375 -2.84375 C 5.070312 -3.375 4.585938 -3.640625 3.921875 -3.640625 L 2.875 -3.640625 L 2.875 -0.921875 C 2.875 -0.609375 2.789062 -0.351562 2.625 -0.15625 C 2.457031 0.0390625 2.207031 0.140625 1.875 0.140625 C 1.539062 0.140625 1.285156 0.0390625 1.109375 -0.15625 C 0.941406 -0.351562 0.859375 -0.609375 0.859375 -0.921875 L 0.859375 -8.71875 C 0.859375 -9.039062 0.941406 -9.296875 1.109375 -9.484375 C 1.285156 -9.679688 1.539062 -9.78125 1.875 -9.78125 L 5.53125 -9.78125 C 6.414062 -9.78125 7.113281 -9.546875 7.625 -9.078125 C 8.144531 -8.609375 8.40625 -7.914062 8.40625 -7 C 8.40625 -6.257812 8.238281 -5.660156 7.90625 -5.203125 C 7.570312 -4.742188 7.117188 -4.4375 6.546875 -4.28125 Z M 2.875 -5.34375 L 5 -5.34375 C 5.40625 -5.34375 5.734375 -5.46875 5.984375 -5.71875 C 6.242188 -5.96875 6.375 -6.304688 6.375 -6.734375 C 6.375 -7.171875 6.242188 -7.507812 5.984375 -7.75 C 5.734375 -7.988281 5.40625 -8.109375 5 -8.109375 L 2.875 -8.109375 Z M 2.875 -5.34375 "/></g></g></g><g fill="#ff3131" fill-opacity="1"><g transform="translate(189.149111, 319.0455)"><g><path d="M 2.6875 -9.921875 C 3.09375 -9.921875 3.367188 -9.753906 3.515625 -9.421875 L 5.90625 -3.9375 L 8.265625 -9.421875 C 8.335938 -9.585938 8.453125 -9.710938 8.609375 -9.796875 C 8.765625 -9.878906 8.929688 -9.921875 9.109375 -9.921875 C 9.359375 -9.921875 9.582031 -9.835938 9.78125 -9.671875 C 9.976562 -9.503906 10.09375 -9.289062 10.125 -9.03125 L 11.203125 -0.984375 L 11.203125 -0.859375 C 11.203125 -0.578125 11.109375 -0.335938 10.921875 -0.140625 C 10.742188 0.046875 10.507812 0.140625 10.21875 0.140625 C 9.957031 0.140625 9.726562 0.0546875 9.53125 -0.109375 C 9.34375 -0.285156 9.238281 -0.503906 9.21875 -0.765625 L 8.46875 -6.109375 L 6.765625 -1.78125 C 6.691406 -1.601562 6.578125 -1.46875 6.421875 -1.375 C 6.273438 -1.289062 6.097656 -1.25 5.890625 -1.25 C 5.472656 -1.25 5.191406 -1.425781 5.046875 -1.78125 L 3.328125 -6.109375 L 2.5625 -0.765625 C 2.550781 -0.503906 2.445312 -0.285156 2.25 -0.109375 C 2.0625 0.0546875 1.832031 0.140625 1.5625 0.140625 C 1.269531 0.140625 1.035156 0.0507812 0.859375 -0.125 C 0.679688 -0.3125 0.59375 -0.550781 0.59375 -0.84375 L 0.59375 -0.984375 L 1.671875 -9.03125 C 1.703125 -9.289062 1.816406 -9.503906 2.015625 -9.671875 C 2.210938 -9.835938 2.4375 -9.921875 2.6875 -9.921875 Z M 2.6875 -9.921875 "/></g></g></g><g fill="#ff3131" fill-opacity="1"><g transform="translate(200.910065, 319.0455)"><g><path d="M 1.140625 -9.78125 L 5.296875 -9.78125 C 5.546875 -9.78125 5.757812 -9.691406 5.9375 -9.515625 C 6.113281 -9.335938 6.203125 -9.125 6.203125 -8.875 C 6.203125 -8.625 6.113281 -8.410156 5.9375 -8.234375 C 5.757812 -8.054688 5.546875 -7.96875 5.296875 -7.96875 L 4.21875 -7.96875 L 4.21875 -1.8125 L 5.296875 -1.8125 C 5.546875 -1.8125 5.757812 -1.722656 5.9375 -1.546875 C 6.113281 -1.367188 6.203125 -1.15625 6.203125 -0.90625 C 6.203125 -0.65625 6.113281 -0.441406 5.9375 -0.265625 C 5.757812 -0.0859375 5.546875 0 5.296875 0 L 1.140625 0 C 0.890625 0 0.675781 -0.0859375 0.5 -0.265625 C 0.332031 -0.441406 0.25 -0.65625 0.25 -0.90625 C 0.25 -1.15625 0.332031 -1.367188 0.5 -1.546875 C 0.675781 -1.722656 0.890625 -1.8125 1.140625 -1.8125 L 2.203125 -1.8125 L 2.203125 -7.96875 L 1.140625 -7.96875 C 0.890625 -7.96875 0.675781 -8.054688 0.5 -8.234375 C 0.332031 -8.410156 0.25 -8.625 0.25 -8.875 C 0.25 -9.125 0.332031 -9.335938 0.5 -9.515625 C 0.675781 -9.691406 0.890625 -9.78125 1.140625 -9.78125 Z M 1.140625 -9.78125 "/></g></g></g><g fill="#ff3131" fill-opacity="1"><g transform="translate(207.335293, 319.0455)"><g><path d="M 1.859375 -9.90625 C 2.015625 -9.90625 2.160156 -9.875 2.296875 -9.8125 C 2.429688 -9.757812 2.546875 -9.671875 2.640625 -9.546875 L 7.078125 -3.453125 L 7.078125 -8.90625 C 7.078125 -9.1875 7.175781 -9.425781 7.375 -9.625 C 7.570312 -9.820312 7.816406 -9.921875 8.109375 -9.921875 C 8.378906 -9.921875 8.613281 -9.820312 8.8125 -9.625 C 9.007812 -9.425781 9.109375 -9.1875 9.109375 -8.90625 L 9.109375 -0.859375 C 9.109375 -0.585938 9.007812 -0.351562 8.8125 -0.15625 C 8.613281 0.03125 8.378906 0.125 8.109375 0.125 C 7.953125 0.125 7.800781 0.09375 7.65625 0.03125 C 7.519531 -0.0195312 7.40625 -0.101562 7.3125 -0.21875 L 2.875 -6.328125 L 2.875 -0.859375 C 2.875 -0.585938 2.773438 -0.351562 2.578125 -0.15625 C 2.378906 0.0390625 2.140625 0.140625 1.859375 0.140625 C 1.578125 0.140625 1.335938 0.0390625 1.140625 -0.15625 C 0.953125 -0.351562 0.859375 -0.585938 0.859375 -0.859375 L 0.859375 -8.90625 C 0.859375 -9.1875 0.953125 -9.421875 1.140625 -9.609375 C 1.335938 -9.804688 1.578125 -9.90625 1.859375 -9.90625 Z M 1.859375 -9.90625 "/></g></g></g><g fill="#ff3131" fill-opacity="1"><g transform="translate(217.280423, 319.0455)"><g><path d="M 5.5 -9.921875 C 6.207031 -9.921875 6.816406 -9.835938 7.328125 -9.671875 C 7.847656 -9.503906 8.273438 -9.296875 8.609375 -9.046875 C 8.878906 -8.890625 9.015625 -8.648438 9.015625 -8.328125 C 9.015625 -8.078125 8.941406 -7.882812 8.796875 -7.75 C 8.648438 -7.613281 8.457031 -7.546875 8.21875 -7.546875 C 8.15625 -7.546875 8.097656 -7.546875 8.046875 -7.546875 C 7.992188 -7.554688 7.945312 -7.570312 7.90625 -7.59375 C 7.675781 -7.726562 7.363281 -7.863281 6.96875 -8 C 6.582031 -8.144531 6.09375 -8.21875 5.5 -8.21875 C 4.601562 -8.21875 3.898438 -7.921875 3.390625 -7.328125 C 2.878906 -6.734375 2.625 -5.921875 2.625 -4.890625 C 2.625 -3.867188 2.875 -3.054688 3.375 -2.453125 C 3.882812 -1.859375 4.59375 -1.5625 5.5 -1.5625 C 5.96875 -1.5625 6.375 -1.632812 6.71875 -1.78125 C 7.070312 -1.9375 7.363281 -2.144531 7.59375 -2.40625 L 7.59375 -4.046875 L 5.5625 -4.046875 C 5.320312 -4.046875 5.113281 -4.128906 4.9375 -4.296875 C 4.769531 -4.460938 4.6875 -4.660156 4.6875 -4.890625 C 4.6875 -5.128906 4.769531 -5.328125 4.9375 -5.484375 C 5.113281 -5.648438 5.320312 -5.734375 5.5625 -5.734375 L 8.625 -5.734375 C 8.945312 -5.734375 9.195312 -5.640625 9.375 -5.453125 C 9.550781 -5.265625 9.640625 -5.019531 9.640625 -4.71875 L 9.640625 -2.515625 C 9.640625 -2.234375 9.597656 -2.015625 9.515625 -1.859375 C 9.429688 -1.703125 9.304688 -1.53125 9.140625 -1.34375 C 8.710938 -0.863281 8.203125 -0.492188 7.609375 -0.234375 C 7.015625 0.015625 6.3125 0.140625 5.5 0.140625 C 4.488281 0.140625 3.613281 -0.0664062 2.875 -0.484375 C 2.144531 -0.910156 1.582031 -1.5 1.1875 -2.25 C 0.789062 -3.007812 0.59375 -3.890625 0.59375 -4.890625 C 0.59375 -5.921875 0.796875 -6.8125 1.203125 -7.5625 C 1.609375 -8.320312 2.179688 -8.90625 2.921875 -9.3125 C 3.660156 -9.71875 4.519531 -9.921875 5.5 -9.921875 Z M 5.5 -9.921875 "/></g></g></g><g fill="#ff3131" fill-opacity="1"><g transform="translate(227.476967, 319.0455)"><g/></g></g><g fill="#ff3131" fill-opacity="1"><g transform="translate(231.304157, 319.0455)"><g><path d="M 1.140625 -9.78125 L 5.296875 -9.78125 C 5.546875 -9.78125 5.757812 -9.691406 5.9375 -9.515625 C 6.113281 -9.335938 6.203125 -9.125 6.203125 -8.875 C 6.203125 -8.625 6.113281 -8.410156 5.9375 -8.234375 C 5.757812 -8.054688 5.546875 -7.96875 5.296875 -7.96875 L 4.21875 -7.96875 L 4.21875 -1.8125 L 5.296875 -1.8125 C 5.546875 -1.8125 5.757812 -1.722656 5.9375 -1.546875 C 6.113281 -1.367188 6.203125 -1.15625 6.203125 -0.90625 C 6.203125 -0.65625 6.113281 -0.441406 5.9375 -0.265625 C 5.757812 -0.0859375 5.546875 0 5.296875 0 L 1.140625 0 C 0.890625 0 0.675781 -0.0859375 0.5 -0.265625 C 0.332031 -0.441406 0.25 -0.65625 0.25 -0.90625 C 0.25 -1.15625 0.332031 -1.367188 0.5 -1.546875 C 0.675781 -1.722656 0.890625 -1.8125 1.140625 -1.8125 L 2.203125 -1.8125 L 2.203125 -7.96875 L 1.140625 -7.96875 C 0.890625 -7.96875 0.675781 -8.054688 0.5 -8.234375 C 0.332031 -8.410156 0.25 -8.625 0.25 -8.875 C 0.25 -9.125 0.332031 -9.335938 0.5 -9.515625 C 0.675781 -9.691406 0.890625 -9.78125 1.140625 -9.78125 Z M 1.140625 -9.78125 "/></g></g></g><g fill="#ff3131" fill-opacity="1"><g transform="translate(237.729385, 319.0455)"><g><path d="M 2.53125 -9.78125 L 5.609375 -9.78125 C 6.304688 -9.78125 6.914062 -9.644531 7.4375 -9.375 C 7.96875 -9.101562 8.410156 -8.734375 8.765625 -8.265625 C 9.128906 -7.804688 9.40625 -7.285156 9.59375 -6.703125 C 9.78125 -6.128906 9.875 -5.523438 9.875 -4.890625 C 9.875 -4.265625 9.78125 -3.65625 9.59375 -3.0625 C 9.414062 -2.476562 9.144531 -1.957031 8.78125 -1.5 C 8.425781 -1.039062 7.984375 -0.675781 7.453125 -0.40625 C 6.921875 -0.132812 6.304688 0 5.609375 0 L 1.859375 0 C 1.523438 0 1.273438 -0.0976562 1.109375 -0.296875 C 0.941406 -0.492188 0.859375 -0.75 0.859375 -1.0625 L 0.859375 -8.71875 C 0.859375 -9.039062 0.941406 -9.296875 1.109375 -9.484375 C 1.273438 -9.679688 1.523438 -9.78125 1.859375 -9.78125 Z M 2.875 -1.8125 L 5.1875 -1.8125 C 5.738281 -1.8125 6.210938 -1.945312 6.609375 -2.21875 C 7.003906 -2.488281 7.304688 -2.851562 7.515625 -3.3125 C 7.734375 -3.78125 7.84375 -4.304688 7.84375 -4.890625 C 7.84375 -5.472656 7.734375 -6 7.515625 -6.46875 C 7.296875 -6.9375 6.988281 -7.300781 6.59375 -7.5625 C 6.195312 -7.832031 5.726562 -7.96875 5.1875 -7.96875 L 2.875 -7.96875 Z M 2.875 -1.8125 "/></g></g></g><g fill="#ff3131" fill-opacity="1"><g transform="translate(248.17736, 319.0455)"><g><path d="M 1.875 -9.78125 L 6.875 -9.78125 C 7.09375 -9.78125 7.285156 -9.695312 7.453125 -9.53125 C 7.617188 -9.363281 7.703125 -9.164062 7.703125 -8.9375 C 7.703125 -8.71875 7.617188 -8.523438 7.453125 -8.359375 C 7.285156 -8.191406 7.09375 -8.109375 6.875 -8.109375 L 2.875 -8.109375 L 2.875 -5.734375 L 5.46875 -5.734375 C 5.695312 -5.734375 5.894531 -5.644531 6.0625 -5.46875 C 6.226562 -5.300781 6.3125 -5.109375 6.3125 -4.890625 C 6.3125 -4.660156 6.226562 -4.460938 6.0625 -4.296875 C 5.894531 -4.128906 5.695312 -4.046875 5.46875 -4.046875 L 2.875 -4.046875 L 2.875 -1.671875 L 6.875 -1.671875 C 7.09375 -1.671875 7.285156 -1.585938 7.453125 -1.421875 C 7.617188 -1.253906 7.703125 -1.0625 7.703125 -0.84375 C 7.703125 -0.613281 7.617188 -0.414062 7.453125 -0.25 C 7.285156 -0.0820312 7.09375 0 6.875 0 L 1.875 0 C 1.539062 0 1.285156 -0.0976562 1.109375 -0.296875 C 0.941406 -0.492188 0.859375 -0.75 0.859375 -1.0625 L 0.859375 -8.71875 C 0.859375 -9.039062 0.941406 -9.296875 1.109375 -9.484375 C 1.285156 -9.679688 1.539062 -9.78125 1.875 -9.78125 Z M 1.875 -9.78125 "/></g></g></g><g fill="#ff3131" fill-opacity="1"><g transform="translate(256.306665, 319.0455)"><g><path d="M 4.75 -9.921875 C 5.164062 -9.898438 5.460938 -9.703125 5.640625 -9.328125 L 9.09375 -1.3125 C 9.164062 -1.144531 9.203125 -0.992188 9.203125 -0.859375 C 9.203125 -0.585938 9.101562 -0.351562 8.90625 -0.15625 C 8.707031 0.0390625 8.46875 0.140625 8.1875 0.140625 C 7.976562 0.140625 7.789062 0.09375 7.625 0 C 7.457031 -0.09375 7.335938 -0.242188 7.265625 -0.453125 L 6.5625 -2.34375 L 2.875 -2.34375 L 2.171875 -0.453125 C 2.097656 -0.242188 1.976562 -0.09375 1.8125 0 C 1.65625 0.09375 1.46875 0.140625 1.25 0.140625 C 0.976562 0.140625 0.742188 0.0390625 0.546875 -0.15625 C 0.347656 -0.351562 0.25 -0.585938 0.25 -0.859375 C 0.25 -1.023438 0.28125 -1.175781 0.34375 -1.3125 L 3.796875 -9.328125 C 3.878906 -9.503906 4.003906 -9.644531 4.171875 -9.75 C 4.335938 -9.863281 4.519531 -9.921875 4.71875 -9.921875 C 4.726562 -9.921875 4.738281 -9.921875 4.75 -9.921875 Z M 6 -3.921875 L 4.734375 -7.375 L 3.46875 -3.921875 Z M 6 -3.921875 "/></g></g></g><g fill="#ff3131" fill-opacity="1"><g transform="translate(265.721013, 319.0455)"><g><path d="M 4.359375 -9.921875 C 4.984375 -9.921875 5.585938 -9.816406 6.171875 -9.609375 C 6.753906 -9.398438 7.203125 -9.128906 7.515625 -8.796875 C 7.640625 -8.640625 7.703125 -8.460938 7.703125 -8.265625 C 7.703125 -8.023438 7.632812 -7.828125 7.5 -7.671875 C 7.363281 -7.515625 7.15625 -7.4375 6.875 -7.4375 C 6.789062 -7.4375 6.707031 -7.441406 6.625 -7.453125 C 6.550781 -7.472656 6.472656 -7.515625 6.390625 -7.578125 C 5.828125 -8.003906 5.207031 -8.21875 4.53125 -8.21875 C 4.019531 -8.21875 3.628906 -8.117188 3.359375 -7.921875 C 3.097656 -7.722656 2.96875 -7.457031 2.96875 -7.125 C 2.96875 -6.800781 3.0625 -6.550781 3.25 -6.375 C 3.445312 -6.207031 3.742188 -6.078125 4.140625 -5.984375 L 5.859375 -5.515625 C 6.640625 -5.304688 7.203125 -4.992188 7.546875 -4.578125 C 7.898438 -4.160156 8.078125 -3.570312 8.078125 -2.8125 C 8.078125 -2.25 7.945312 -1.742188 7.6875 -1.296875 C 7.4375 -0.859375 7.046875 -0.507812 6.515625 -0.25 C 5.984375 0.0078125 5.3125 0.140625 4.5 0.140625 C 2.851562 0.140625 1.628906 -0.21875 0.828125 -0.9375 C 0.742188 -1.019531 0.679688 -1.113281 0.640625 -1.21875 C 0.609375 -1.320312 0.59375 -1.421875 0.59375 -1.515625 C 0.59375 -1.753906 0.664062 -1.953125 0.8125 -2.109375 C 0.96875 -2.265625 1.171875 -2.34375 1.421875 -2.34375 C 1.585938 -2.34375 1.738281 -2.296875 1.875 -2.203125 C 2.25 -1.972656 2.632812 -1.804688 3.03125 -1.703125 C 3.4375 -1.609375 3.910156 -1.5625 4.453125 -1.5625 C 5.015625 -1.5625 5.421875 -1.671875 5.671875 -1.890625 C 5.921875 -2.109375 6.046875 -2.378906 6.046875 -2.703125 C 6.046875 -2.953125 5.960938 -3.164062 5.796875 -3.34375 C 5.640625 -3.53125 5.335938 -3.679688 4.890625 -3.796875 L 3.15625 -4.265625 C 2.445312 -4.453125 1.898438 -4.757812 1.515625 -5.1875 C 1.140625 -5.613281 0.953125 -6.234375 0.953125 -7.046875 C 0.953125 -7.898438 1.238281 -8.59375 1.8125 -9.125 C 2.382812 -9.65625 3.234375 -9.921875 4.359375 -9.921875 Z M 4.359375 -9.921875 "/></g></g></g><g fill="#ff3131" fill-opacity="1"><g transform="translate(274.325227, 319.0455)"><g/></g></g><g fill="#ff3131" fill-opacity="1"><g transform="translate(278.152417, 319.0455)"><g><path d="M 1.140625 -9.78125 L 5.296875 -9.78125 C 5.546875 -9.78125 5.757812 -9.691406 5.9375 -9.515625 C 6.113281 -9.335938 6.203125 -9.125 6.203125 -8.875 C 6.203125 -8.625 6.113281 -8.410156 5.9375 -8.234375 C 5.757812 -8.054688 5.546875 -7.96875 5.296875 -7.96875 L 4.21875 -7.96875 L 4.21875 -1.8125 L 5.296875 -1.8125 C 5.546875 -1.8125 5.757812 -1.722656 5.9375 -1.546875 C 6.113281 -1.367188 6.203125 -1.15625 6.203125 -0.90625 C 6.203125 -0.65625 6.113281 -0.441406 5.9375 -0.265625 C 5.757812 -0.0859375 5.546875 0 5.296875 0 L 1.140625 0 C 0.890625 0 0.675781 -0.0859375 0.5 -0.265625 C 0.332031 -0.441406 0.25 -0.65625 0.25 -0.90625 C 0.25 -1.15625 0.332031 -1.367188 0.5 -1.546875 C 0.675781 -1.722656 0.890625 -1.8125 1.140625 -1.8125 L 2.203125 -1.8125 L 2.203125 -7.96875 L 1.140625 -7.96875 C 0.890625 -7.96875 0.675781 -8.054688 0.5 -8.234375 C 0.332031 -8.410156 0.25 -8.625 0.25 -8.875 C 0.25 -9.125 0.332031 -9.335938 0.5 -9.515625 C 0.675781 -9.691406 0.890625 -9.78125 1.140625 -9.78125 Z M 1.140625 -9.78125 "/></g></g></g><g fill="#ff3131" fill-opacity="1"><g transform="translate(284.577645, 319.0455)"><g><path d="M 1.859375 -9.90625 C 2.015625 -9.90625 2.160156 -9.875 2.296875 -9.8125 C 2.429688 -9.757812 2.546875 -9.671875 2.640625 -9.546875 L 7.078125 -3.453125 L 7.078125 -8.90625 C 7.078125 -9.1875 7.175781 -9.425781 7.375 -9.625 C 7.570312 -9.820312 7.816406 -9.921875 8.109375 -9.921875 C 8.378906 -9.921875 8.613281 -9.820312 8.8125 -9.625 C 9.007812 -9.425781 9.109375 -9.1875 9.109375 -8.90625 L 9.109375 -0.859375 C 9.109375 -0.585938 9.007812 -0.351562 8.8125 -0.15625 C 8.613281 0.03125 8.378906 0.125 8.109375 0.125 C 7.953125 0.125 7.800781 0.09375 7.65625 0.03125 C 7.519531 -0.0195312 7.40625 -0.101562 7.3125 -0.21875 L 2.875 -6.328125 L 2.875 -0.859375 C 2.875 -0.585938 2.773438 -0.351562 2.578125 -0.15625 C 2.378906 0.0390625 2.140625 0.140625 1.859375 0.140625 C 1.578125 0.140625 1.335938 0.0390625 1.140625 -0.15625 C 0.953125 -0.351562 0.859375 -0.585938 0.859375 -0.859375 L 0.859375 -8.90625 C 0.859375 -9.1875 0.953125 -9.421875 1.140625 -9.609375 C 1.335938 -9.804688 1.578125 -9.90625 1.859375 -9.90625 Z M 1.859375 -9.90625 "/></g></g></g><g fill="#ff3131" fill-opacity="1"><g transform="translate(294.522775, 319.0455)"><g><path d="M 1.140625 -9.78125 L 6.90625 -9.78125 C 7.15625 -9.78125 7.367188 -9.691406 7.546875 -9.515625 C 7.722656 -9.335938 7.8125 -9.125 7.8125 -8.875 C 7.8125 -8.625 7.722656 -8.410156 7.546875 -8.234375 C 7.367188 -8.054688 7.15625 -7.96875 6.90625 -7.96875 L 5.046875 -7.96875 L 5.046875 -0.921875 C 5.046875 -0.609375 4.957031 -0.351562 4.78125 -0.15625 C 4.613281 0.0390625 4.359375 0.140625 4.015625 0.140625 C 3.679688 0.140625 3.429688 0.0390625 3.265625 -0.15625 C 3.097656 -0.351562 3.015625 -0.609375 3.015625 -0.921875 L 3.015625 -7.96875 L 1.140625 -7.96875 C 0.890625 -7.96875 0.675781 -8.054688 0.5 -8.234375 C 0.332031 -8.410156 0.25 -8.625 0.25 -8.875 C 0.25 -9.125 0.332031 -9.335938 0.5 -9.515625 C 0.675781 -9.691406 0.890625 -9.78125 1.140625 -9.78125 Z M 1.140625 -9.78125 "/></g></g></g><g fill="#ff3131" fill-opacity="1"><g transform="translate(302.540333, 319.0455)"><g><path d="M 5.484375 -8.109375 C 4.578125 -8.109375 3.875 -7.816406 3.375 -7.234375 C 2.875 -6.660156 2.625 -5.878906 2.625 -4.890625 C 2.625 -3.898438 2.875 -3.113281 3.375 -2.53125 C 3.875 -1.957031 4.578125 -1.671875 5.484375 -1.671875 C 6.398438 -1.671875 7.109375 -1.957031 7.609375 -2.53125 C 8.117188 -3.113281 8.375 -3.898438 8.375 -4.890625 C 8.375 -5.878906 8.117188 -6.660156 7.609375 -7.234375 C 7.109375 -7.816406 6.398438 -8.109375 5.484375 -8.109375 Z M 5.484375 -9.921875 C 6.523438 -9.921875 7.410156 -9.703125 8.140625 -9.265625 C 8.867188 -8.835938 9.425781 -8.25 9.8125 -7.5 C 10.207031 -6.75 10.40625 -5.878906 10.40625 -4.890625 C 10.40625 -3.898438 10.207031 -3.023438 9.8125 -2.265625 C 9.425781 -1.515625 8.867188 -0.925781 8.140625 -0.5 C 7.410156 -0.0703125 6.523438 0.140625 5.484375 0.140625 C 4.453125 0.140625 3.570312 -0.0703125 2.84375 -0.5 C 2.113281 -0.925781 1.554688 -1.515625 1.171875 -2.265625 C 0.785156 -3.023438 0.59375 -3.898438 0.59375 -4.890625 C 0.59375 -5.878906 0.785156 -6.75 1.171875 -7.5 C 1.554688 -8.25 2.113281 -8.835938 2.84375 -9.265625 C 3.570312 -9.703125 4.453125 -9.921875 5.484375 -9.921875 Z M 5.484375 -9.921875 "/></g></g></g><g fill="#ff3131" fill-opacity="1"><g transform="translate(313.491154, 319.0455)"><g/></g></g><g fill="#ff3131" fill-opacity="1"><g transform="translate(317.318344, 319.0455)"><g><path d="M 1.140625 -9.78125 L 5.296875 -9.78125 C 5.546875 -9.78125 5.757812 -9.691406 5.9375 -9.515625 C 6.113281 -9.335938 6.203125 -9.125 6.203125 -8.875 C 6.203125 -8.625 6.113281 -8.410156 5.9375 -8.234375 C 5.757812 -8.054688 5.546875 -7.96875 5.296875 -7.96875 L 4.21875 -7.96875 L 4.21875 -1.8125 L 5.296875 -1.8125 C 5.546875 -1.8125 5.757812 -1.722656 5.9375 -1.546875 C 6.113281 -1.367188 6.203125 -1.15625 6.203125 -0.90625 C 6.203125 -0.65625 6.113281 -0.441406 5.9375 -0.265625 C 5.757812 -0.0859375 5.546875 0 5.296875 0 L 1.140625 0 C 0.890625 0 0.675781 -0.0859375 0.5 -0.265625 C 0.332031 -0.441406 0.25 -0.65625 0.25 -0.90625 C 0.25 -1.15625 0.332031 -1.367188 0.5 -1.546875 C 0.675781 -1.722656 0.890625 -1.8125 1.140625 -1.8125 L 2.203125 -1.8125 L 2.203125 -7.96875 L 1.140625 -7.96875 C 0.890625 -7.96875 0.675781 -8.054688 0.5 -8.234375 C 0.332031 -8.410156 0.25 -8.625 0.25 -8.875 C 0.25 -9.125 0.332031 -9.335938 0.5 -9.515625 C 0.675781 -9.691406 0.890625 -9.78125 1.140625 -9.78125 Z M 1.140625 -9.78125 "/></g></g></g><g fill="#ff3131" fill-opacity="1"><g transform="translate(323.743572, 319.0455)"><g><path d="M 1.859375 -9.90625 C 2.015625 -9.90625 2.160156 -9.875 2.296875 -9.8125 C 2.429688 -9.757812 2.546875 -9.671875 2.640625 -9.546875 L 7.078125 -3.453125 L 7.078125 -8.90625 C 7.078125 -9.1875 7.175781 -9.425781 7.375 -9.625 C 7.570312 -9.820312 7.816406 -9.921875 8.109375 -9.921875 C 8.378906 -9.921875 8.613281 -9.820312 8.8125 -9.625 C 9.007812 -9.425781 9.109375 -9.1875 9.109375 -8.90625 L 9.109375 -0.859375 C 9.109375 -0.585938 9.007812 -0.351562 8.8125 -0.15625 C 8.613281 0.03125 8.378906 0.125 8.109375 0.125 C 7.953125 0.125 7.800781 0.09375 7.65625 0.03125 C 7.519531 -0.0195312 7.40625 -0.101562 7.3125 -0.21875 L 2.875 -6.328125 L 2.875 -0.859375 C 2.875 -0.585938 2.773438 -0.351562 2.578125 -0.15625 C 2.378906 0.0390625 2.140625 0.140625 1.859375 0.140625 C 1.578125 0.140625 1.335938 0.0390625 1.140625 -0.15625 C 0.953125 -0.351562 0.859375 -0.585938 0.859375 -0.859375 L 0.859375 -8.90625 C 0.859375 -9.1875 0.953125 -9.421875 1.140625 -9.609375 C 1.335938 -9.804688 1.578125 -9.90625 1.859375 -9.90625 Z M 1.859375 -9.90625 "/></g></g></g><g fill="#ff3131" fill-opacity="1"><g transform="translate(333.688702, 319.0455)"><g><path d="M 1.859375 -9.90625 C 2.015625 -9.90625 2.160156 -9.875 2.296875 -9.8125 C 2.429688 -9.757812 2.546875 -9.671875 2.640625 -9.546875 L 7.078125 -3.453125 L 7.078125 -8.90625 C 7.078125 -9.1875 7.175781 -9.425781 7.375 -9.625 C 7.570312 -9.820312 7.816406 -9.921875 8.109375 -9.921875 C 8.378906 -9.921875 8.613281 -9.820312 8.8125 -9.625 C 9.007812 -9.425781 9.109375 -9.1875 9.109375 -8.90625 L 9.109375 -0.859375 C 9.109375 -0.585938 9.007812 -0.351562 8.8125 -0.15625 C 8.613281 0.03125 8.378906 0.125 8.109375 0.125 C 7.953125 0.125 7.800781 0.09375 7.65625 0.03125 C 7.519531 -0.0195312 7.40625 -0.101562 7.3125 -0.21875 L 2.875 -6.328125 L 2.875 -0.859375 C 2.875 -0.585938 2.773438 -0.351562 2.578125 -0.15625 C 2.378906 0.0390625 2.140625 0.140625 1.859375 0.140625 C 1.578125 0.140625 1.335938 0.0390625 1.140625 -0.15625 C 0.953125 -0.351562 0.859375 -0.585938 0.859375 -0.859375 L 0.859375 -8.90625 C 0.859375 -9.1875 0.953125 -9.421875 1.140625 -9.609375 C 1.335938 -9.804688 1.578125 -9.90625 1.859375 -9.90625 Z M 1.859375 -9.90625 "/></g></g></g><g fill="#ff3131" fill-opacity="1"><g transform="translate(343.633831, 319.0455)"><g><path d="M 5.484375 -8.109375 C 4.578125 -8.109375 3.875 -7.816406 3.375 -7.234375 C 2.875 -6.660156 2.625 -5.878906 2.625 -4.890625 C 2.625 -3.898438 2.875 -3.113281 3.375 -2.53125 C 3.875 -1.957031 4.578125 -1.671875 5.484375 -1.671875 C 6.398438 -1.671875 7.109375 -1.957031 7.609375 -2.53125 C 8.117188 -3.113281 8.375 -3.898438 8.375 -4.890625 C 8.375 -5.878906 8.117188 -6.660156 7.609375 -7.234375 C 7.109375 -7.816406 6.398438 -8.109375 5.484375 -8.109375 Z M 5.484375 -9.921875 C 6.523438 -9.921875 7.410156 -9.703125 8.140625 -9.265625 C 8.867188 -8.835938 9.425781 -8.25 9.8125 -7.5 C 10.207031 -6.75 10.40625 -5.878906 10.40625 -4.890625 C 10.40625 -3.898438 10.207031 -3.023438 9.8125 -2.265625 C 9.425781 -1.515625 8.867188 -0.925781 8.140625 -0.5 C 7.410156 -0.0703125 6.523438 0.140625 5.484375 0.140625 C 4.453125 0.140625 3.570312 -0.0703125 2.84375 -0.5 C 2.113281 -0.925781 1.554688 -1.515625 1.171875 -2.265625 C 0.785156 -3.023438 0.59375 -3.898438 0.59375 -4.890625 C 0.59375 -5.878906 0.785156 -6.75 1.171875 -7.5 C 1.554688 -8.25 2.113281 -8.835938 2.84375 -9.265625 C 3.570312 -9.703125 4.453125 -9.921875 5.484375 -9.921875 Z M 5.484375 -9.921875 "/></g></g></g><g fill="#ff3131" fill-opacity="1"><g transform="translate(354.584652, 319.0455)"><g><path d="M 1.25 -9.921875 C 1.46875 -9.921875 1.65625 -9.875 1.8125 -9.78125 C 1.96875 -9.6875 2.085938 -9.535156 2.171875 -9.328125 L 4.71875 -2.828125 L 7.265625 -9.328125 C 7.347656 -9.535156 7.46875 -9.6875 7.625 -9.78125 C 7.789062 -9.875 7.976562 -9.921875 8.1875 -9.921875 C 8.46875 -9.921875 8.707031 -9.820312 8.90625 -9.625 C 9.101562 -9.425781 9.203125 -9.1875 9.203125 -8.90625 C 9.203125 -8.78125 9.164062 -8.632812 9.09375 -8.46875 L 5.640625 -0.453125 C 5.554688 -0.273438 5.429688 -0.128906 5.265625 -0.015625 C 5.097656 0.0859375 4.914062 0.140625 4.71875 0.140625 C 4.71875 0.140625 4.710938 0.140625 4.703125 0.140625 C 4.703125 0.140625 4.695312 0.140625 4.6875 0.140625 C 4.269531 0.117188 3.972656 -0.078125 3.796875 -0.453125 L 0.34375 -8.46875 C 0.28125 -8.601562 0.25 -8.75 0.25 -8.90625 C 0.25 -9.1875 0.347656 -9.425781 0.546875 -9.625 C 0.742188 -9.820312 0.976562 -9.921875 1.25 -9.921875 Z M 1.25 -9.921875 "/></g></g></g><g fill="#ff3131" fill-opacity="1"><g transform="translate(363.999, 319.0455)"><g><path d="M 4.75 -9.921875 C 5.164062 -9.898438 5.460938 -9.703125 5.640625 -9.328125 L 9.09375 -1.3125 C 9.164062 -1.144531 9.203125 -0.992188 9.203125 -0.859375 C 9.203125 -0.585938 9.101562 -0.351562 8.90625 -0.15625 C 8.707031 0.0390625 8.46875 0.140625 8.1875 0.140625 C 7.976562 0.140625 7.789062 0.09375 7.625 0 C 7.457031 -0.09375 7.335938 -0.242188 7.265625 -0.453125 L 6.5625 -2.34375 L 2.875 -2.34375 L 2.171875 -0.453125 C 2.097656 -0.242188 1.976562 -0.09375 1.8125 0 C 1.65625 0.09375 1.46875 0.140625 1.25 0.140625 C 0.976562 0.140625 0.742188 0.0390625 0.546875 -0.15625 C 0.347656 -0.351562 0.25 -0.585938 0.25 -0.859375 C 0.25 -1.023438 0.28125 -1.175781 0.34375 -1.3125 L 3.796875 -9.328125 C 3.878906 -9.503906 4.003906 -9.644531 4.171875 -9.75 C 4.335938 -9.863281 4.519531 -9.921875 4.71875 -9.921875 C 4.726562 -9.921875 4.738281 -9.921875 4.75 -9.921875 Z M 6 -3.921875 L 4.734375 -7.375 L 3.46875 -3.921875 Z M 6 -3.921875 "/></g></g></g><g fill="#ff3131" fill-opacity="1"><g transform="translate(373.413347, 319.0455)"><g><path d="M 1.140625 -9.78125 L 6.90625 -9.78125 C 7.15625 -9.78125 7.367188 -9.691406 7.546875 -9.515625 C 7.722656 -9.335938 7.8125 -9.125 7.8125 -8.875 C 7.8125 -8.625 7.722656 -8.410156 7.546875 -8.234375 C 7.367188 -8.054688 7.15625 -7.96875 6.90625 -7.96875 L 5.046875 -7.96875 L 5.046875 -0.921875 C 5.046875 -0.609375 4.957031 -0.351562 4.78125 -0.15625 C 4.613281 0.0390625 4.359375 0.140625 4.015625 0.140625 C 3.679688 0.140625 3.429688 0.0390625 3.265625 -0.15625 C 3.097656 -0.351562 3.015625 -0.609375 3.015625 -0.921875 L 3.015625 -7.96875 L 1.140625 -7.96875 C 0.890625 -7.96875 0.675781 -8.054688 0.5 -8.234375 C 0.332031 -8.410156 0.25 -8.625 0.25 -8.875 C 0.25 -9.125 0.332031 -9.335938 0.5 -9.515625 C 0.675781 -9.691406 0.890625 -9.78125 1.140625 -9.78125 Z M 1.140625 -9.78125 "/></g></g></g><g fill="#ff3131" fill-opacity="1"><g transform="translate(381.430906, 319.0455)"><g><path d="M 1.140625 -9.78125 L 5.296875 -9.78125 C 5.546875 -9.78125 5.757812 -9.691406 5.9375 -9.515625 C 6.113281 -9.335938 6.203125 -9.125 6.203125 -8.875 C 6.203125 -8.625 6.113281 -8.410156 5.9375 -8.234375 C 5.757812 -8.054688 5.546875 -7.96875 5.296875 -7.96875 L 4.21875 -7.96875 L 4.21875 -1.8125 L 5.296875 -1.8125 C 5.546875 -1.8125 5.757812 -1.722656 5.9375 -1.546875 C 6.113281 -1.367188 6.203125 -1.15625 6.203125 -0.90625 C 6.203125 -0.65625 6.113281 -0.441406 5.9375 -0.265625 C 5.757812 -0.0859375 5.546875 0 5.296875 0 L 1.140625 0 C 0.890625 0 0.675781 -0.0859375 0.5 -0.265625 C 0.332031 -0.441406 0.25 -0.65625 0.25 -0.90625 C 0.25 -1.15625 0.332031 -1.367188 0.5 -1.546875 C 0.675781 -1.722656 0.890625 -1.8125 1.140625 -1.8125 L 2.203125 -1.8125 L 2.203125 -7.96875 L 1.140625 -7.96875 C 0.890625 -7.96875 0.675781 -8.054688 0.5 -8.234375 C 0.332031 -8.410156 0.25 -8.625 0.25 -8.875 C 0.25 -9.125 0.332031 -9.335938 0.5 -9.515625 C 0.675781 -9.691406 0.890625 -9.78125 1.140625 -9.78125 Z M 1.140625 -9.78125 "/></g></g></g><g fill="#ff3131" fill-opacity="1"><g transform="translate(387.856133, 319.0455)"><g><path d="M 5.484375 -8.109375 C 4.578125 -8.109375 3.875 -7.816406 3.375 -7.234375 C 2.875 -6.660156 2.625 -5.878906 2.625 -4.890625 C 2.625 -3.898438 2.875 -3.113281 3.375 -2.53125 C 3.875 -1.957031 4.578125 -1.671875 5.484375 -1.671875 C 6.398438 -1.671875 7.109375 -1.957031 7.609375 -2.53125 C 8.117188 -3.113281 8.375 -3.898438 8.375 -4.890625 C 8.375 -5.878906 8.117188 -6.660156 7.609375 -7.234375 C 7.109375 -7.816406 6.398438 -8.109375 5.484375 -8.109375 Z M 5.484375 -9.921875 C 6.523438 -9.921875 7.410156 -9.703125 8.140625 -9.265625 C 8.867188 -8.835938 9.425781 -8.25 9.8125 -7.5 C 10.207031 -6.75 10.40625 -5.878906 10.40625 -4.890625 C 10.40625 -3.898438 10.207031 -3.023438 9.8125 -2.265625 C 9.425781 -1.515625 8.867188 -0.925781 8.140625 -0.5 C 7.410156 -0.0703125 6.523438 0.140625 5.484375 0.140625 C 4.453125 0.140625 3.570312 -0.0703125 2.84375 -0.5 C 2.113281 -0.925781 1.554688 -1.515625 1.171875 -2.265625 C 0.785156 -3.023438 0.59375 -3.898438 0.59375 -4.890625 C 0.59375 -5.878906 0.785156 -6.75 1.171875 -7.5 C 1.554688 -8.25 2.113281 -8.835938 2.84375 -9.265625 C 3.570312 -9.703125 4.453125 -9.921875 5.484375 -9.921875 Z M 5.484375 -9.921875 "/></g></g></g><g fill="#ff3131" fill-opacity="1"><g transform="translate(398.806954, 319.0455)"><g><path d="M 1.859375 -9.90625 C 2.015625 -9.90625 2.160156 -9.875 2.296875 -9.8125 C 2.429688 -9.757812 2.546875 -9.671875 2.640625 -9.546875 L 7.078125 -3.453125 L 7.078125 -8.90625 C 7.078125 -9.1875 7.175781 -9.425781 7.375 -9.625 C 7.570312 -9.820312 7.816406 -9.921875 8.109375 -9.921875 C 8.378906 -9.921875 8.613281 -9.820312 8.8125 -9.625 C 9.007812 -9.425781 9.109375 -9.1875 9.109375 -8.90625 L 9.109375 -0.859375 C 9.109375 -0.585938 9.007812 -0.351562 8.8125 -0.15625 C 8.613281 0.03125 8.378906 0.125 8.109375 0.125 C 7.953125 0.125 7.800781 0.09375 7.65625 0.03125 C 7.519531 -0.0195312 7.40625 -0.101562 7.3125 -0.21875 L 2.875 -6.328125 L 2.875 -0.859375 C 2.875 -0.585938 2.773438 -0.351562 2.578125 -0.15625 C 2.378906 0.0390625 2.140625 0.140625 1.859375 0.140625 C 1.578125 0.140625 1.335938 0.0390625 1.140625 -0.15625 C 0.953125 -0.351562 0.859375 -0.585938 0.859375 -0.859375 L 0.859375 -8.90625 C 0.859375 -9.1875 0.953125 -9.421875 1.140625 -9.609375 C 1.335938 -9.804688 1.578125 -9.90625 1.859375 -9.90625 Z M 1.859375 -9.90625 "/></g></g></g></svg>